<?xml version="1.0" encoding="UTF-8"?>
<svg enable-background="new 0 0 64 64" version="1.1" viewBox="0 0 64 64" xml:space="preserve" xmlns="http://www.w3.org/2000/svg">
<style type="text/css">
	.st0{display:none;fill:none;stroke:#231F20;stroke-width:2;stroke-linecap:round;stroke-linejoin:round;stroke-miterlimit:10;}
</style>
	<path d="m48.587 32.936c-0.553 0-1-0.447-1-1v-4.074c0-9.928-6.38-16.862-15.515-16.862-7.143 0-15.658 2.925-15.658 16.861v4.074c0 0.552-0.448 1-1 1s-1-0.448-1-1v-4.074c0-16.411 11.064-18.861 17.658-18.861 10.312 0 17.515 7.756 17.515 18.862v4.074c0 0.552-0.447 1-1 1z"/>
			<path d="m32 31.851"/>
		<path d="m32.111 55c-8.55 0-14.854-8.512-15.442-14.795-1.497-0.203-2.455-0.865-3.02-1.436-0.87-0.878-1.349-2.059-1.349-3.325 0-2.283 1.601-4.593 4.661-4.593 4.684 0 5.148-3.199 5.323-8.079l0.03-0.8c0.019-0.462 0.353-0.851 0.807-0.94 0.455-0.09 0.91 0.145 1.102 0.565 2.697 5.899 6.654 5.373 11.236 4.763 4.283-0.57 9.116-1.211 12.179 4.524 2.67 0.292 4.062 2.438 4.062 4.561 0 1.253-0.459 2.428-1.294 3.309-0.54 0.57-1.447 1.231-2.852 1.443-0.585 6.284-6.89 14.803-15.443 14.803zm-7.964-29.659c-0.332 3.696-1.531 7.51-7.186 7.51-1.828 0-2.661 1.344-2.661 2.593 0 0.735 0.273 1.417 0.769 1.917 0.588 0.593 1.471 0.906 2.555 0.906 0.552 0 1 0.447 1 1 0 7.966 8.056 13.733 13.487 13.733s13.486-5.767 13.486-13.732c0-0.553 0.447-1 1-1 0.99 0 1.805-0.308 2.356-0.89 0.474-0.5 0.745-1.204 0.745-1.933 0-1.291-0.832-2.594-2.692-2.594-0.384 0-0.733-0.22-0.9-0.565-2.415-5.003-6.107-4.512-10.384-3.943-3.935 0.522-8.312 1.103-11.575-3.002z"/>
<path class="st0" d="m36.133 44.179c-1.378 3.274-6.889 3.274-8.266 0"/>
		<circle cx="26" cy="36" r="2"/>
		<circle cx="38" cy="36" r="2"/>
	<path d="m32 50c-3.86 0-7-3.141-7-7 0-0.553 0.448-1 1-1h12c0.553 0 1 0.447 1 1 0 3.859-3.141 7-7 7zm-4.899-6c0.464 2.279 2.485 4 4.899 4 2.415 0 4.435-1.721 4.899-4h-9.798z"/>
</svg>
